<svg width="106" height="24" viewBox="0 0 106 24" fill="none" xmlns="http://www.w3.org/2000/svg">
<g id="Logotype">
<path d="M7.00665 18.5666C5.74665 18.5666 4.52554 18.3877 3.34332 18.0299C2.17665 17.6722 1.25109 17.1977 0.56665 16.6066L1.61665 14.2499C2.28554 14.7788 3.10221 15.2144 4.06665 15.5566C5.04665 15.8833 6.02665 16.0466 7.00665 16.0466C8.21998 16.0466 9.1222 15.8522 9.71331 15.4633C10.32 15.0744 10.6233 14.5611 10.6233 13.9233C10.6233 13.4566 10.4522 13.0755 10.11 12.7799C9.78331 12.4688 9.36331 12.2277 8.84998 12.0566C8.33665 11.8855 7.63665 11.6911 6.74998 11.4733C5.50554 11.1777 4.49443 10.8822 3.71665 10.5866C2.95443 10.2911 2.29332 9.83217 1.73332 9.20995C1.18887 8.57217 0.91665 7.71661 0.91665 6.64328C0.91665 5.74106 1.15776 4.92439 1.63998 4.19328C2.13776 3.44661 2.87665 2.8555 3.85665 2.41995C4.8522 1.98439 6.06554 1.76661 7.49665 1.76661C8.4922 1.76661 9.4722 1.89106 10.4366 2.13995C11.4011 2.38883 12.2333 2.74661 12.9333 3.21328L11.9766 5.56995C11.2611 5.14995 10.5144 4.83106 9.73665 4.61328C8.95887 4.3955 8.20442 4.28661 7.47331 4.28661C6.27554 4.28661 5.38109 4.48883 4.78998 4.89328C4.21443 5.29772 3.92665 5.83439 3.92665 6.50328C3.92665 6.96995 4.08998 7.35106 4.41665 7.64661C4.75887 7.94217 5.18665 8.1755 5.69998 8.34661C6.21332 8.51772 6.91331 8.71217 7.79998 8.92995C9.01331 9.20995 10.0089 9.5055 10.7866 9.81661C11.5644 10.1122 12.2255 10.5711 12.77 11.1933C13.33 11.8155 13.61 12.6555 13.61 13.7133C13.61 14.6155 13.3611 15.4322 12.8633 16.1633C12.3811 16.8944 11.6422 17.4777 10.6466 17.9133C9.65109 18.3488 8.43776 18.5666 7.00665 18.5666Z" fill="#101828"/>
<path d="M16.3378 5.87328H19.2545V18.3333H16.3378V5.87328ZM17.8078 3.81995C17.2789 3.81995 16.8356 3.65661 16.4778 3.32995C16.12 2.98772 15.9411 2.56772 15.9411 2.06995C15.9411 1.57217 16.12 1.15995 16.4778 0.833279C16.8356 0.491057 17.2789 0.319946 17.8078 0.319946C18.3367 0.319946 18.78 0.483279 19.1378 0.809946C19.4956 1.12106 19.6745 1.51772 19.6745 1.99995C19.6745 2.51328 19.4956 2.94883 19.1378 3.30661C18.7956 3.64883 18.3522 3.81995 17.8078 3.81995Z" fill="#101828"/>
<path d="M26.9326 18.4966C25.9215 18.4966 24.9337 18.3644 23.9692 18.0999C23.0048 17.8355 22.2348 17.5011 21.6592 17.0966L22.7792 14.8799C23.3392 15.2533 24.0081 15.5566 24.7859 15.7899C25.5792 16.0077 26.357 16.1166 27.1192 16.1166C28.8615 16.1166 29.7326 15.6577 29.7326 14.7399C29.7326 14.3044 29.507 14.0011 29.0559 13.8299C28.6204 13.6588 27.9126 13.4955 26.9326 13.3399C25.9059 13.1844 25.0659 13.0055 24.4126 12.8033C23.7748 12.6011 23.2148 12.2511 22.7326 11.7533C22.2659 11.2399 22.0326 10.5322 22.0326 9.62995C22.0326 8.44772 22.5226 7.50661 23.5026 6.80661C24.4981 6.09106 25.8359 5.73328 27.5159 5.73328C28.3715 5.73328 29.227 5.83439 30.0826 6.03661C30.9381 6.22328 31.6381 6.47995 32.1826 6.80661L31.0626 9.02328C30.0048 8.40106 28.8148 8.08995 27.4926 8.08995C26.637 8.08995 25.9837 8.22217 25.5326 8.48661C25.097 8.7355 24.8792 9.06995 24.8792 9.48995C24.8792 9.95661 25.1126 10.2911 25.5792 10.4933C26.0615 10.6799 26.8004 10.8588 27.7959 11.0299C28.7915 11.1855 29.6081 11.3644 30.2459 11.5666C30.8837 11.7688 31.4281 12.1111 31.8792 12.5933C32.3459 13.0755 32.5792 13.7599 32.5792 14.6466C32.5792 15.8133 32.0737 16.7466 31.0626 17.4466C30.0515 18.1466 28.6748 18.4966 26.9326 18.4966Z" fill="#101828"/>
<path d="M46.5298 5.87328L40.6965 19.3366C40.1521 20.6899 39.4909 21.6388 38.7132 22.1833C37.9354 22.7433 36.9943 23.0233 35.8898 23.0233C35.2676 23.0233 34.6532 22.9222 34.0465 22.7199C33.4398 22.5177 32.9421 22.2377 32.5532 21.8799L33.7198 19.7333C33.9998 19.9977 34.3265 20.2077 34.6998 20.3633C35.0887 20.5188 35.4776 20.5966 35.8665 20.5966C36.3798 20.5966 36.7998 20.4644 37.1265 20.1999C37.4687 19.9355 37.7798 19.4922 38.0598 18.8699L38.2698 18.3799L32.8332 5.87328H35.8665L39.7865 15.0899L43.7298 5.87328H46.5298Z" fill="#101828"/>
<path d="M55.2594 5.73328C56.4727 5.73328 57.5539 5.99772 58.5027 6.52661C59.4672 7.0555 60.2216 7.80217 60.7661 8.76661C61.3105 9.73106 61.5827 10.8433 61.5827 12.1033C61.5827 13.3633 61.3105 14.4833 60.7661 15.4633C60.2216 16.4277 59.4672 17.1744 58.5027 17.7033C57.5539 18.2322 56.4727 18.4966 55.2594 18.4966C53.5794 18.4966 52.2494 17.9366 51.2694 16.8166V22.8599H48.3527V5.87328H51.1294V7.50661C51.6116 6.9155 52.2027 6.47217 52.9027 6.17661C53.6183 5.88106 54.4039 5.73328 55.2594 5.73328ZM54.9327 15.9999C56.0061 15.9999 56.885 15.6422 57.5694 14.9266C58.2694 14.2111 58.6194 13.2699 58.6194 12.1033C58.6194 10.9366 58.2694 9.9955 57.5694 9.27995C56.885 8.56439 56.0061 8.20661 54.9327 8.20661C54.2327 8.20661 53.6027 8.36995 53.0427 8.69661C52.4827 9.00772 52.0394 9.45884 51.7127 10.0499C51.3861 10.6411 51.2227 11.3255 51.2227 12.1033C51.2227 12.8811 51.3861 13.5655 51.7127 14.1566C52.0394 14.7477 52.4827 15.2066 53.0427 15.5333C53.6027 15.8444 54.2327 15.9999 54.9327 15.9999Z" fill="#101828"/>
<path d="M71.4188 5.73328C72.9899 5.73328 74.2499 6.19217 75.1988 7.10995C76.1477 8.02772 76.6222 9.38883 76.6222 11.1933V18.3333H73.7055V11.5666C73.7055 10.4777 73.4488 9.66106 72.9355 9.11661C72.4222 8.55661 71.6911 8.27661 70.7422 8.27661C69.6688 8.27661 68.8211 8.60328 68.1988 9.25661C67.5766 9.89439 67.2655 10.8199 67.2655 12.0333V18.3333H64.3488V1.01995H67.2655V7.31995C67.7477 6.80661 68.3388 6.41772 69.0388 6.15328C69.7544 5.87328 70.5477 5.73328 71.4188 5.73328Z" fill="#101828"/>
<path d="M92.3855 5.87328V18.3333H89.6088V16.7466C89.1421 17.3066 88.5588 17.7422 87.8588 18.0533C87.1588 18.3488 86.4044 18.4966 85.5955 18.4966C83.931 18.4966 82.6166 18.0377 81.6521 17.1199C80.7032 16.1866 80.2288 14.8099 80.2288 12.9899V5.87328H83.1455V12.5933C83.1455 13.7133 83.3944 14.5533 83.8921 15.1133C84.4055 15.6577 85.1288 15.9299 86.0621 15.9299C87.1043 15.9299 87.9288 15.6111 88.5355 14.9733C89.1577 14.3199 89.4688 13.3866 89.4688 12.1733V5.87328H92.3855Z" fill="#101828"/>
<path d="M100.054 18.4966C99.0432 18.4966 98.0554 18.3644 97.091 18.0999C96.1265 17.8355 95.3565 17.5011 94.781 17.0966L95.901 14.8799C96.461 15.2533 97.1298 15.5566 97.9076 15.7899C98.701 16.0077 99.4787 16.1166 100.241 16.1166C101.983 16.1166 102.854 15.6577 102.854 14.7399C102.854 14.3044 102.629 14.0011 102.178 13.8299C101.742 13.6588 101.034 13.4955 100.054 13.3399C99.0276 13.1844 98.1876 13.0055 97.5343 12.8033C96.8965 12.6011 96.3365 12.2511 95.8543 11.7533C95.3876 11.2399 95.1543 10.5322 95.1543 9.62995C95.1543 8.44772 95.6443 7.50661 96.6243 6.80661C97.6198 6.09106 98.9576 5.73328 100.638 5.73328C101.493 5.73328 102.349 5.83439 103.204 6.03661C104.06 6.22328 104.76 6.47995 105.304 6.80661L104.184 9.02328C103.127 8.40106 101.937 8.08995 100.614 8.08995C99.7587 8.08995 99.1054 8.22217 98.6543 8.48661C98.2187 8.7355 98.001 9.06995 98.001 9.48995C98.001 9.95661 98.2343 10.2911 98.701 10.4933C99.1832 10.6799 99.9221 10.8588 100.918 11.0299C101.913 11.1855 102.73 11.3644 103.368 11.5666C104.005 11.7688 104.55 12.1111 105.001 12.5933C105.468 13.0755 105.701 13.7599 105.701 14.6466C105.701 15.8133 105.195 16.7466 104.184 17.4466C103.173 18.1466 101.797 18.4966 100.054 18.4966Z" fill="#101828"/>
</g>
</svg>
